<?xml version="1.0" encoding="UTF-8" standalone="no"?>
<!-- Created with Inkscape (http://www.inkscape.org/) -->

<svg
   version="1.1"
   id="svg48"
   width="410"
   height="410"
   viewBox="0 0 410 410"
   sodipodi:docname="qr.svg"
   inkscape:version="1.2 (dc2aedaf03, 2022-05-15)"
   xmlns:inkscape="http://www.inkscape.org/namespaces/inkscape"
   xmlns:sodipodi="http://sodipodi.sourceforge.net/DTD/sodipodi-0.dtd"
   xmlns="http://www.w3.org/2000/svg"
   xmlns:svg="http://www.w3.org/2000/svg">
  <defs
     id="defs52" />
  <sodipodi:namedview
     id="namedview50"
     pagecolor="#ffffff"
     bordercolor="#000000"
     borderopacity="0.25"
     inkscape:showpageshadow="2"
     inkscape:pageopacity="0.0"
     inkscape:pagecheckerboard="0"
     inkscape:deskcolor="#d1d1d1"
     showgrid="false"
     inkscape:zoom="2.1243902"
     inkscape:cx="204.76464"
     inkscape:cy="205.47072"
     inkscape:window-width="1896"
     inkscape:window-height="1016"
     inkscape:window-x="12"
     inkscape:window-y="52"
     inkscape:window-maximized="1"
     inkscape:current-layer="g54" />
  <g
     inkscape:groupmode="layer"
     inkscape:label="Image"
     id="g54">
    <path
       style="fill:#333333;fill-opacity:1"
       d="m 40,335 v -35 h 35 35 v 35 35 H 75 40 Z m 60,0 V 310 H 75 50 v 25 25 h 25 25 z m -40,0 v -15 h 15 15 v 15 15 H 75 60 Z m 60,30 v -5 h 5 5 v 5 5 h -5 -5 z m 20,0 v -5 h 5 5 v -5 -5 h 5 5 v -10 -10 h -5 -5 v 5 5 h -5 -5 v 5 5 h -5 -5 v -10 -10 h -5 -5 v -5 -5 h 5 5 v 5 5 h 10 10 v -10 -10 h -15 -15 v -10 -10 h -10 -10 v -5 -5 h -5 -5 v 5 5 h -5 -5 v -5 -5 h -5 -5 v 5 5 H 55 40 v -5 -5 h 15 15 v -5 -5 h 5 5 v -5 -5 h -5 -5 v -5 -5 h -5 -5 v -5 -5 h -5 -5 v 10 10 h -5 -5 v -10 -10 h 5 5 v -5 -5 h -5 -5 v -20 -20 h 10 10 v -25 -25 h -5 -5 v 5 5 h -5 -5 v -5 -5 h 5 5 v -5 -5 h -5 -5 v -5 -5 h 5 5 v 5 5 h 5 5 v 5 5 h 5 5 v 10 10 h 5 5 v -10 -10 h 5 5 v -5 -5 h -5 -5 v -5 -5 h 5 5 v 5 5 h 5 5 v -5 -5 h 10 10 V 95 70 h 10 10 v -5 -5 h -5 -5 v -5 -5 h -5 -5 v -5 -5 h 5 5 v 5 5 h 10 10 v -5 -5 h 15 15 v 5 5 h 5 5 v -5 -5 h 5 5 v 5 5 h -5 -5 v 5 5 h 15 15 V 50 40 h 5 5 v 5 5 h 5 5 v 10 10 h -10 -10 v 15 15 h 5 5 v 5 5 h 5 5 V 100 90 h -5 -5 v -5 -5 h 5 5 v 5 5 h 5 5 V 75 60 h 5 5 v 5 5 h 5 5 v -5 -5 h 5 5 v 5 5 h -5 -5 v 10 10 h 10 10 v 15 15 h 25 25 v 5 5 h 5 5 v 5 5 h 5 5 v -10 -10 h 5 5 v 10 10 h -5 -5 v 5 5 h -5 -5 v -5 -5 h -5 -5 v 5 5 h -5 -5 v -10 -10 h -15 -15 v 10 10 h 5 5 v 5 5 h 5 5 v 10 10 h 5 5 v 5 5 h -5 -5 v 5 5 h 10 10 v 5 5 h 5 5 v -5 -5 h 5 5 v 20 20 h -5 -5 v -10 -10 h -5 -5 v 5 5 h -5 -5 v -10 -10 h -5 -5 v -5 -5 h -5 -5 v 5 5 h -5 -5 v -5 -5 h -5 -5 v 10 10 h 5 5 v 5 5 h 5 5 v -5 -5 h 5 5 v 10 10 h 10 10 v 5 5 h 10 10 v 10 10 h 5 5 v 5 5 h -5 -5 v 5 5 h -5 -5 v 5 5 h -5 -5 v 5 5 h -5 -5 v 5 5 h 5 5 v 5 5 h 10 10 v -10 -10 h 5 5 v 10 10 h -5 -5 v 5 5 h -10 -10 v 5 5 h -15 -15 v 10 10 h -40 -40 v -5 -5 h -5 -5 v 5 5 h -5 -5 v -5 -5 h -10 -10 v -5 -5 h -5 -5 v 5 5 h -15 -15 v 5 5 h -5 -5 z m 110,-10 v -5 h -5 -5 v -5 -5 h -5 -5 v 10 10 h 10 10 z m 20,0 v -5 h 10 10 v 5 5 h 5 5 v -5 -5 h -5 -5 v -5 -5 h 5 5 v -5 -5 h -10 -10 v -15 -15 h -15 -15 v -5 -5 h -5 -5 v -5 -5 h -10 -10 v 10 10 h -10 -10 v 5 5 h 5 5 v 10 10 h -5 -5 v -5 -5 h -5 -5 v 5 5 h -5 -5 v 5 5 h -5 -5 v 5 5 h 5 5 v -5 -5 h 10 10 v 5 5 h 10 10 v -10 -10 h 5 5 v -10 -10 h 5 5 v 10 10 h 5 5 v 5 5 h 5 5 v 10 10 h 5 5 z m 0,-20 v -5 h -5 -5 v -10 -10 h 5 5 v 10 10 h 5 5 v 5 5 h -5 -5 z m -50,-30 v -5 h 5 5 v 5 5 h -5 -5 z m -40,5 v -10 h -5 -5 v -15 -15 h 5 5 v 5 5 h 15 15 v -5 -5 h 5 5 v -5 -5 h 5 5 v -5 -5 h -5 -5 v -5 -5 h -5 -5 v -5 -5 h -5 -5 v 5 5 h -5 -5 v -15 -15 h 10 10 v 5 5 h 5 5 v 5 5 h 5 5 v 5 5 h 5 5 v -15 -15 h -5 -5 v 5 5 h -5 -5 v -5 -5 h -5 -5 v -5 -5 h -20 -20 v -5 -5 h 5 5 v -10 -10 h 5 5 v 5 5 h 5 5 v 5 5 h 5 5 v -10 -10 h 20 20 v 5 5 h 5 5 v 10 10 h 5 5 v 5 5 h 5 5 v -5 -5 h 5 5 v -5 -5 h -5 -5 v 5 5 h -5 -5 v -10 -10 h 5 5 v -5 -5 h -10 -10 v -10 -10 h 5 5 v 5 5 h 5 5 v -5 -5 h 5 5 v -15 -15 h -5 -5 v -10 -10 h -5 -5 v 5 5 h -5 -5 v -5 -5 h -5 -5 v 5 5 h 5 5 v 5 5 h 10 10 v 15 15 h -5 -5 v -5 -5 h -10 -10 v -5 -5 h -5 -5 v -5 -5 h -10 -10 v 5 5 h 5 5 v 10 10 h -5 -5 v -5 -5 h -10 -10 v 5 5 h -10 -10 v 10 10 h -10 -10 v -10 -10 h 5 5 v -5 -5 h 10 10 v -10 -10 h 5 5 v 5 5 h 5 5 v -10 -10 h 5 5 v -5 -5 h -5 -5 v -5 -5 h -5 -5 V 80 70 h -10 -10 v -5 -5 h -5 -5 v 10 10 h -10 -10 v -5 -5 h 5 5 v -5 -5 h -5 -5 v 5 5 h -5 -5 v 10 10 h 5 5 v 10 10 h -5 -5 v -5 -5 h -5 -5 v 15 15 h -5 -5 v 5 5 h 5 5 v 5 5 h -5 -5 v 5 5 h -5 -5 v -5 -5 H 100 90 v 5 5 h -5 -5 v 5 5 h 10 10 v 5 5 h 5 5 v 5 5 H 100 90 v 5 5 h 10 10 v 5 5 h -5 -5 v 5 5 h -5 -5 v 10 10 h -5 -5 v -5 -5 h -5 -5 v 10 10 h 5 5 v 5 5 h 5 5 v -10 -10 h 10 10 v -5 -5 h -5 -5 v -5 -5 h 5 5 v -5 -5 h 5 5 v -5 -5 h 10 10 v 5 5 h 5 5 v 15 15 h -5 -5 v -10 -10 h -10 -10 v 15 15 h -10 -10 v 5 5 h 10 10 v 5 5 h 5 5 v 5 5 h -5 -5 v 5 5 h 5 5 v 5 5 h 5 5 v -15 -15 h 5 5 v 5 5 h 5 5 v 10 10 h -5 -5 v 5 5 h 5 5 v 5 5 h 10 10 z m -30,-45 v -5 h 5 5 v -5 -5 h -5 -5 v -5 -5 h 5 5 v -10 -10 h 10 10 v 10 10 h 5 5 v 5 5 h -10 -10 v 10 10 h -10 -10 z m 20,-20 v -5 h -5 -5 v 5 5 h 5 5 z m 10,20 v -5 h 5 5 v 5 5 h -5 -5 z m 20,-5 v -10 h 10 10 v 5 5 h -5 -5 v 5 5 h -5 -5 z m -70,-15 v -5 h 5 5 v 5 5 h -5 -5 z m 30,-40 v -5 h -10 -10 v -25 -25 h 5 5 v 10 10 h 5 5 v 5 5 h 5 5 v 5 5 h -5 -5 v 5 5 h 5 5 v 5 5 h -5 -5 z m -50,-10 v -5 h 5 5 v 5 5 h -5 -5 z m 0,-20 v -5 h -5 -5 v -5 -5 h 5 5 v 5 5 h 5 5 v -5 -5 h 5 5 v 5 5 h -5 -5 v 5 5 h -5 -5 z m 90,-15 v -10 h 5 5 v 10 10 h -5 -5 z m 30,-5 v -5 h 10 10 v 5 5 h -10 -10 z m -90,-25 v -10 h 5 5 v -5 -5 h 5 5 V 100 90 h 5 5 v 10 10 h -5 -5 v 5 5 h 5 5 v 5 5 h -5 -5 v 5 5 h -10 -10 z m 20,-5 v -5 h -5 -5 v 5 5 h 5 5 z m 20,-15 v -10 h 5 5 v -5 -5 h 5 5 v 5 5 h 5 5 v 5 5 h -5 -5 v -5 -5 h -5 -5 v 10 10 h -5 -5 z m 140,195 v -15 h -15 -15 v 15 15 h 15 15 z m -20,0 v -5 h 5 5 v 5 5 h -5 -5 z m 40,-10 v -5 h 5 5 v -10 -10 h -5 -5 v -5 -5 h -5 -5 v -5 -5 h -10 -10 v 5 5 h -5 -5 v -10 -10 h -10 -10 v -5 -5 h -10 -10 v 5 5 h -5 -5 v 5 5 h -5 -5 v 10 10 h 5 5 v -5 -5 h 5 5 v 5 5 h 5 5 v 10 10 h 5 5 v -5 -5 h 5 5 v -5 -5 h -10 -10 v -5 -5 h 15 15 v 5 5 h 5 5 v 5 5 h 5 5 v -5 -5 h 10 10 v 10 10 h -5 -5 v 5 5 h 5 5 z m -80,-40 v -5 h 5 5 v 5 5 h -5 -5 z m -150,20 v -5 h -5 -5 v 5 5 h 5 5 z M 60,225 v -5 h 10 10 v -5 -5 h -5 -5 v -5 -5 h -5 -5 v 10 10 h -5 -5 v 5 5 h 5 5 z m 200,-10 v -5 h -5 -5 v 5 5 h 5 5 z m -10,-20 v -5 h -5 -5 v -5 -5 h -5 -5 v 10 10 h 10 10 z M 80,185 v -5 h -5 -5 v 5 5 h 5 5 z m 240,0 v -5 h -5 -5 v -5 -5 h -5 -5 v -5 -5 h -5 -5 v 5 5 h 5 5 v 5 5 h 5 5 v 5 5 h 5 5 z M 110,135 v -5 h -5 -5 v 5 5 h 5 5 z m 220,230 v -5 h 5 5 v 5 5 h -5 -5 z m 30,0 v -5 h 5 5 v 5 5 h -5 -5 z M 350,185 v -5 h -5 -5 v -5 -5 h -5 -5 v -5 -5 h 5 5 v 5 5 h 5 5 v 5 5 h 5 5 v 5 5 h -5 -5 z M 40,170 v -10 h 5 5 v 10 10 h -5 -5 z m 320,-5 v -5 h 5 5 v 5 5 h -5 -5 z M 40,75 V 40 h 35 35 v 35 35 H 75 40 Z m 60,0 V 50 H 75 50 v 25 25 h 25 25 z M 60,75 V 60 H 75 90 V 75 90 H 75 60 Z m 240,0 V 40 h 35 35 v 35 35 h -35 -35 z m 60,0 V 50 h -25 -25 v 25 25 h 25 25 z m -40,0 V 60 h 15 15 V 75 90 H 335 320 Z M 270,45 v -5 h 5 5 v 5 5 h -5 -5 z"
       id="path216" />
  </g>
</svg>
